Coordinates
version=1
nRows=24
nColumns=19
inDegrees=yes

Units are S.I. units (second, meters, Newtons, ...)
If the header above contains a line with 'inDegrees', this indicates whether rotational values are in degrees (yes) or radians (no).

endheader
time	pelvis_tilt	pelvis_list	pelvis_rotation	pelvis_tx	pelvis_ty	pelvis_tz	hip_flexion_r	hip_adduction_r	hip_rotation_r	knee_angle_r	knee_angle_r_beta	ankle_angle_r	hip_flexion_l	hip_adduction_l	hip_rotation_l	knee_angle_l	knee_angle_l_beta	ankle_angle_l
     13.09333333	      4.35578999	      7.01180509	      8.43122903	      2.10504594	      1.11630786	      1.03994548	    -23.51728887	     -7.81463966	    -24.53050505	     40.43503981	      0.70572458	    -11.00575980	     14.90357838	     12.32350878	      1.97644610	     14.99159911	      0.26165276	      6.83817593
     13.10000000	      4.82348591	      7.54372187	      8.70007520	      2.10553459	      1.11270768	      1.03898212	    -23.36518305	     -8.69870831	    -24.69190123	     43.41424356	      0.75772149	    -10.20344921	     14.50538014	     12.78490612	      1.36140053	     16.50814696	      0.28812152	      6.24023181
     13.10666667	      4.80549768	      7.99248907	      8.77542754	      2.10583043	      1.10830196	      1.03817119	    -22.41217835	     -9.70392129	    -24.38933614	     46.71087253	      0.81525852	     -9.52537681	     14.77554985	     13.14680589	      0.44300374	     18.34596626	      0.32019752	      5.66713707
     13.11333333	      4.68955700	      8.26172375	      8.96020826	      2.10572639	      1.10360641	      1.03738699	    -21.20846298	    -10.41738742	    -23.86888934	     50.02652823	      0.87312763	     -8.79532202	     15.25371746	     13.34587198	     -0.26997171	     20.45689849	      0.35704023	      5.25110990
     13.12000000	      4.74593407	      8.63472085	      9.10071619	      2.10531630	      1.09889212	      1.03680375	    -20.10698741	    -11.18180091	    -23.25852881	     53.35557790	      0.93123051	     -8.17024208	     15.56157542	     13.60364674	     -0.93768387	     22.67898184	      0.39582290	      5.06573681
     13.12666667	      5.10899067	      9.13062377	      9.22440725	      2.10458624	      1.09440938	      1.03642222	    -19.28996463	    -11.98490412	    -22.67826732	     56.64049745	      0.98856317	     -7.61733605	     15.50224334	     13.93455330	     -1.49690774	     24.90638806	      0.43469848	      5.15407619
     13.13333333	      4.86371883	      9.41691064	      9.24349338	      2.10352723	      1.08921197	      1.03626397	    -17.49798530	    -12.64369311	    -21.56750497	     60.10812030	      1.04908461	     -7.01700956	     16.24169148	     14.09494283	     -2.11757087	     27.33561437	      0.47709647	      5.59396360
     13.14000000	      4.82494283	      9.74071108	      9.33156555	      2.10209466	      1.08419624	      1.03619799	    -15.88614297	    -13.24707034	    -20.57815644	     63.49544607	      1.10820459	     -6.44923420	     16.73676166	     14.28450027	     -2.54077968	     29.77320242	      0.51964041	      6.39868710
     13.14666667	      5.26663737	     10.30639806	      9.39603738	      2.10044575	      1.07980603	      1.03637260	    -14.84200831	    -13.99298263	    -19.76470271	     66.71490559	      1.16439476	     -5.86709816	     16.57152992	     14.65790289	     -2.83886258	     32.01640909	      0.55879175	      7.46797468
     13.15333333	      5.48691472	     10.78210645	      9.40268074	      2.09858394	      1.07538881	      1.03662330	    -13.38084733	    -14.65399296	    -18.72291830	     69.91948839	      1.22032528	     -5.29777890	     16.60250399	     14.98459364	     -3.04305663	     34.15816646	      0.59617247	      8.83977319
     13.16000000	      5.04035913	     10.97024340	      9.41489996	      2.09642605	      1.07037478	      1.03696175	    -10.90662947	    -15.04700130	    -17.31225157	     73.20279162	      1.27762974	     -4.67460749	     17.43110656	     15.09411439	     -3.24464244	     36.35882664	      0.63458124	     10.35901533
     13.16666667	      5.21976536	     11.46411376	      9.34868882	      2.09428141	      1.06644257	      1.03748161	     -9.21311375	    -15.66025118	    -16.11398572	     76.20923022	      1.33010199	     -4.02504527	     17.31251329	     15.44188470	     -3.34197456	     38.14159628	      0.66569644	     11.94508965
     13.17333333	      5.79025249	     12.03334001	      9.38809195	      2.09207194	      1.06331536	      1.03793695	     -8.04065940	    -16.22998872	    -15.15041694	     78.92283583	      1.37746334	     -3.30286259	     16.58204524	     15.87898398	     -3.14797889	     39.67115686	      0.69239231	     13.61405474
     13.18000000	      5.41937148	     12.33296721	      9.19321215	      2.08984370	      1.05953522	      1.03859050	     -5.43672724	    -16.65679253	    -13.53134293	     81.75461073	      1.42688714	     -2.58193703	     16.87703913	     16.07680096	     -3.31444344	     41.05697664	      0.71657942	     15.10814077
     13.18666667	      5.62740670	     12.82194424	      8.97973002	      2.08772721	      1.05690863	      1.03928336	     -3.58795349	    -17.15911573	    -12.11884421	     84.23152464	      1.47011744	     -1.81039121	     16.28024341	     16.42219148	     -3.31704788	     42.04313070	      0.73379106	     16.53589879
     13.19333333	      5.74935021	     13.21298996	      8.75419132	      2.08567602	      1.05473791	      1.03995971	     -1.58585118	    -17.51709463	    -10.64283814	     86.49624764	      1.50964431	     -1.00896136	     15.64670677	     16.68887458	     -3.26894926	     42.79470950	      0.74690858	     17.82028911
     13.20000000	      5.87039424	     13.52702993	      8.52405312	      2.08377917	      1.05308820	      1.04058746	      0.42787070	    -17.75044856	     -9.17421959	     88.51120938	      1.54481203	     -0.18899898	     14.86314112	     16.89134605	     -3.15488106	     43.28915942	      0.75553836	     18.97058596
     13.20666667	      5.75273005	     13.75577000	      8.18807305	      2.08204983	      1.05170824	      1.04127154	      2.80037388	    -17.88044808	     -7.52472029	     90.34045451	      1.57673838	      0.56588801	     14.23319986	     17.00431462	     -3.18205126	     43.55928520	      0.76025295	     19.93239300
     13.21333333	      5.40240835	     13.81511237	      7.93237099	      2.08042433	      1.05059584	      1.04181698	      5.42695043	    -17.79853550	     -5.92411887	     91.93609497	      1.60458756	      1.31855483	     13.76237856	     16.99657805	     -3.12107139	     43.67479037	      0.76226889	     20.75697892
     13.22000000	      5.44335986	     13.98392690	      7.57389197	      2.07907652	      1.05052651	      1.04241436	      7.52164218	    -17.78955135	     -4.43956213	     93.18153482	      1.62632458	      2.06374512	     12.65361035	     17.05671861	     -3.05068319	     43.41862619	      0.75779798	     21.40012969
     13.22666667	      5.37417958	     14.04982938	      7.24603650	      2.07790612	      1.05082845	      1.04291455	      9.69397326	    -17.66094826	     -3.03525260	     94.16956037	      1.64356888	      2.77762893	     11.56158312	     17.04413206	     -2.92806154	     42.99160464	      0.75034505	     21.94638237
     13.23333333	      5.23430004	     14.02479664	      6.96597514	      2.07691699	      1.05158955	      1.04330911	     11.86420702	    -17.43054450	     -1.76152528	     94.87557660	      1.65589119	      3.44167873	     10.43852361	     16.96584202	     -2.73576965	     42.37884429	      0.73965037	     22.35446728
     13.24000000	      5.06673443	     13.93052710	      6.74363071	      2.07617427	      1.05285900	      1.04363338	     13.94983380	    -17.13578379	     -0.66410838	     95.28688808	      1.66306993	      4.06783827	      9.22691752	     16.82331646	     -2.48777279	     41.57658086	      0.72564823	     22.62397665
     13.24666667	      4.93796075	     13.57927191	      6.86054686	      2.07551057	      1.05473167	      1.04353339	     15.73635049	    -16.65021235	     -0.12695377	     95.34299913	      1.66404925	      4.69382751	      7.89342015	     16.50046613	     -1.73649717	     40.73293807	      0.71092388	     22.83441055
